<?xml version="1.0" standalone="no"?>
<!DOCTYPE svg PUBLIC "-//W3C//DTD SVG 20010904//EN"
 "http://www.w3.org/TR/2001/REC-SVG-20010904/DTD/svg10.dtd">
<svg version="1.0" xmlns="http://www.w3.org/2000/svg"
 width="360.000000pt" height="131.000000pt" viewBox="0 0 360.000000 131.000000"
 preserveAspectRatio="xMidYMid meet">

<g transform="translate(0.000000,131.000000) scale(0.100000,-0.100000)"
fill="#000000" stroke="none">
<path d="M454 1290 c15 -72 18 -160 6 -194 -19 -57 -40 -66 -160 -66 -81 0
-111 -4 -128 -16 -31 -21 -41 -53 -30 -86 10 -28 68 -78 68 -59 0 5 -5 13 -10
16 -5 3 -10 19 -10 35 0 49 33 62 150 61 l101 0 20 32 c18 28 20 45 17 147 -3
69 -9 123 -17 135 -12 19 -12 19 -7 -5z"/>
<path d="M541 1205 c-25 -33 -33 -72 -22 -110 l9 -30 1 36 c1 39 11 52 50 64
19 6 31 0 63 -31 22 -22 55 -60 74 -86 42 -56 61 -64 109 -44 44 19 146 105
177 150 15 21 2 12 -40 -27 -61 -57 -113 -87 -152 -87 -23 0 -44 20 -110 104
-67 87 -121 108 -159 61z"/>
<path d="M945 1042 c-16 -11 -37 -27 -45 -37 -14 -18 -14 -18 11 -2 21 14 32
15 57 6 17 -6 34 -18 36 -27 6 -18 -3 -75 -25 -176 l-14 -58 34 -29 c38 -32
100 -47 210 -54 l76 -5 -96 18 c-159 29 -182 55 -150 177 27 101 27 145 0 179
-24 31 -52 33 -94 8z"/>
<path d="M3325 947 c-16 -13 -15 -14 14 -9 18 2 38 -1 48 -9 15 -12 16 -12 10
4 -4 10 -7 21 -7 23 0 10 -48 3 -65 -9z"/>
<path d="M570 941 c-74 -24 -134 -76 -149 -129 -13 -45 3 -96 35 -111 33 -15
39 -9 24 20 -16 30 -7 105 17 138 32 43 80 63 145 58 66 -4 95 -24 104 -72 10
-54 -40 -125 -88 -125 -16 0 -18 10 -18 80 0 84 -1 86 -47 74 l-23 -6 0 -229
0 -229 35 0 35 0 0 140 0 140 43 0 c23 0 52 -7 64 -15 46 -32 54 -163 13 -200
-14 -13 -29 -16 -55 -12 -41 7 -45 -4 -10 -38 56 -57 142 -8 163 92 20 91 -6
162 -70 190 l-38 17 21 22 c31 33 36 95 10 137 -11 18 -33 39 -48 46 -35 16
-130 23 -163 12z"/>
<path d="M85 888 c129 -87 137 -130 47 -235 -59 -69 -72 -92 -72 -131 0 -54
52 -79 120 -58 l45 14 -37 1 c-38 1 -68 22 -68 47 0 25 36 87 84 142 25 30 46
58 46 63 0 5 -9 27 -20 49 -19 38 -104 107 -177 144 -58 29 -47 17 32 -36z"/>
<path d="M1730 900 c12 -7 12 -12 -4 -29 -11 -12 -34 -65 -52 -118 -25 -75
-28 -93 -14 -75 10 12 28 53 41 90 32 99 46 122 73 122 45 0 74 -66 44 -99
-11 -11 -9 -11 9 -2 28 14 39 52 24 80 -11 21 -66 41 -111 41 -19 0 -22 -2
-10 -10z"/>
<path d="M2575 903 c-44 -11 -30 -18 36 -18 69 -1 89 7 47 19 -25 6 -53 6 -83
-1z"/>
<path d="M2785 896 c-17 -7 -37 -21 -45 -31 -14 -18 -14 -18 12 -1 18 11 40
17 58 14 24 -4 30 -1 28 10 -4 21 -18 23 -53 8z"/>
<path d="M2626 836 c-8 -18 -21 -57 -27 -87 -6 -30 -19 -69 -30 -86 -28 -50
-13 -39 21 13 16 26 34 72 41 103 6 31 15 64 20 74 6 10 6 17 0 17 -5 0 -16
-15 -25 -34z"/>
<path d="M3197 773 c-34 -77 -61 -162 -54 -170 4 -3 12 10 20 28 19 47 66 193
63 197 -2 1 -15 -24 -29 -55z"/>
<path d="M2655 778 c-4 -10 1 -41 11 -70 28 -84 91 -133 123 -94 9 11 7 12
-12 9 -34 -7 -71 36 -95 109 -14 45 -22 58 -27 46z"/>
<path d="M1750 770 c0 -5 6 -10 14 -10 21 0 56 -48 56 -77 0 -13 -11 -35 -25
-48 -29 -30 -18 -33 18 -5 46 36 43 92 -7 132 -23 19 -56 24 -56 8z"/>
<path d="M2185 769 c-4 -6 -5 -12 -2 -15 2 -3 7 2 10 11 7 17 1 20 -8 4z"/>
<path d="M1959 711 c10 -6 11 -13 2 -29 -15 -29 -14 -85 2 -79 6 2 11 13 9 25
-2 11 4 36 12 56 l15 36 -27 0 c-19 0 -23 -3 -13 -9z"/>
<path d="M2046 707 c2 -7 -2 -34 -10 -60 -18 -59 -3 -62 22 -4 20 45 18 77 -4
77 -7 0 -11 -6 -8 -13z"/>
<path d="M2087 713 c-12 -12 -7 -19 13 -19 11 0 20 6 20 13 0 14 -22 18 -33 6z"/>
<path d="M2163 712 c-16 -10 -45 -91 -37 -103 11 -19 24 -8 24 21 0 17 7 44
15 60 17 32 16 34 -2 22z"/>
<path d="M2224 706 c-3 -8 2 -28 11 -46 13 -25 14 -34 4 -46 -10 -12 -9 -13 4
-8 24 9 29 34 11 61 -8 14 -13 31 -10 39 3 8 1 14 -5 14 -5 0 -12 -6 -15 -14z"/>
<path d="M2929 711 c12 -8 12 -12 0 -33 -15 -24 -14 -78 2 -78 5 0 9 14 9 30
0 17 7 44 15 60 15 30 15 30 -12 30 -21 0 -24 -3 -14 -9z"/>
<path d="M3023 708 c-16 -20 -35 -87 -28 -98 13 -21 25 -9 25 26 0 19 5 44 11
56 12 23 7 34 -8 16z"/>
<path d="M3097 700 c-9 -14 -17 -32 -17 -42 0 -10 -11 -43 -25 -74 -15 -35
-19 -52 -11 -45 18 15 79 158 73 174 -2 6 -11 0 -20 -13z"/>
<path d="M3224 708 c-5 -7 -3 -8 6 -3 9 6 10 0 4 -26 -11 -52 -10 -72 5 -77
10 -3 12 0 8 11 -6 15 1 48 18 90 5 13 2 17 -13 17 -12 0 -24 -5 -28 -12z"/>
<path d="M3389 711 c12 -8 12 -12 0 -33 -15 -24 -14 -78 2 -78 5 0 9 14 9 30
0 17 7 44 15 60 15 30 15 30 -12 30 -21 0 -24 -3 -14 -9z"/>
<path d="M3474 711 c3 -5 -2 -30 -10 -55 -9 -26 -14 -50 -11 -52 8 -8 33 44
42 84 5 26 3 32 -10 32 -9 0 -14 -4 -11 -9z"/>
<path d="M3542 692 c-7 -75 -6 -85 7 -90 9 -3 11 1 7 16 -4 11 0 37 9 57 19
46 19 45 -2 45 -12 0 -19 -9 -21 -28z"/>
<path d="M2394 685 c-30 -45 6 -86 74 -84 29 1 24 3 -21 13 -32 8 -48 40 -36
74 11 29 3 28 -17 -3z"/>
<path d="M1886 681 c-18 -20 -19 -72 -1 -78 6 -2 20 3 30 11 19 15 19 15 -2 9
-19 -4 -23 -1 -23 16 0 12 5 31 10 42 14 24 8 24 -14 0z"/>
<path d="M2852 678 c-15 -15 -16 -65 -1 -74 6 -3 16 -1 22 5 8 8 8 11 -2 11
-9 0 -12 11 -9 35 2 19 4 35 3 35 -1 0 -6 -5 -13 -12z"/>
<path d="M3312 678 c-15 -15 -16 -65 -1 -74 6 -3 16 -1 22 5 8 8 8 11 -2 11
-9 0 -12 11 -9 35 2 19 4 35 3 35 -1 0 -6 -5 -13 -12z"/>
<path d="M1550 661 c0 -11 80 -51 101 -51 8 1 -2 9 -21 20 -25 14 -30 19 -16
20 28 0 17 6 -26 14 -22 4 -38 3 -38 -3z"/>
<path d="M1066 640 c30 -12 53 -47 46 -72 -6 -26 -67 -70 -129 -93 -66 -24
-83 -42 -83 -83 0 -41 80 -200 118 -234 l25 -23 -25 35 c-74 101 -98 196 -60
234 9 10 55 36 102 59 46 23 93 54 104 69 17 23 17 30 6 58 -15 35 -56 60 -97
59 -26 0 -26 -1 -7 -9z"/>
<path d="M2190 621 c0 -6 4 -13 10 -16 6 -3 7 1 4 9 -7 18 -14 21 -14 7z"/>
<path d="M1693 603 c15 -2 37 -2 50 0 12 2 0 4 -28 4 -27 0 -38 -2 -22 -4z"/>
<path d="M2895 537 c-9 -20 10 -47 33 -47 14 0 14 1 0 13 -9 6 -18 21 -21 32
-4 18 -5 19 -12 2z"/>
<path d="M125 409 c-50 -17 -94 -34 -99 -39 -5 -5 22 2 60 15 150 53 203 30
230 -100 18 -92 35 -129 69 -151 20 -13 28 -14 52 -2 30 14 73 71 73 97 0 11
-4 10 -16 -7 -38 -55 -92 -48 -116 15 -9 21 -21 68 -28 106 -20 108 -64 121
-225 66z"/>
<path d="M886 276 c4 -19 -1 -32 -20 -51 -31 -31 -38 -30 -154 26 -90 44 -104
44 -145 1 -29 -31 -87 -166 -93 -221 l-4 -36 10 30 c53 150 91 205 141 205 15
0 61 -18 101 -40 85 -46 145 -53 178 -20 24 24 25 48 6 95 -17 40 -29 47 -20
11z"/>
</g>
</svg>
