<svg height="308" id="163718245898353843" width="560" version="1.1" 
		xmlns:dc="http://purl.org/dc/elements/1.1/"
		xmlns:cc="http://creativecommons.org/ns#"
		xmlns:rdf="http://www.w3.org/1999/02/22-rdf-syntax-ns#"
		xmlns:svg="http://www.w3.org/2000/svg"
		xmlns="http://www.w3.org/2000/svg"
		xmlns:sodipodi="http://sodipodi.sourceforge.net/DTD/sodipodi-0.dtd"
		xmlns:inkscape="http://www.inkscape.org/namespaces/inkscape"
		viewBox="0 0 560 308" style="width: 560px; height: 308px;transition: 0.3s;border-radius: 5px; position: absolute; top: 50%;font-size:48px; left: 50%; transform: translate(-50%, -50%) scale(0.5); z-index: 0; cursor: pointer;"><defs><style type="text/css">@import url("https://fonts.googleapis.com/css2?family=Tangerine:wght@700 ");</style></defs><defs><style type="text/css">@import url("https://fonts.googleapis.com/css2?family=Lobster+Two ");</style></defs><style>.mytextnew163718245898353843{text-align:center;font-family: 'Tangerine', cursive;}.mytextnew2163718245898353843{text-align:center;font-family: 'Lobster Two', cursive;}</style><g id="163718245898353843" featurekey="nameFeature-0" fill="#000"  transform="translate(96.25,84) scale(1.0606060606061)">
  <defs
     id="defs412" />
  <sodipodi:namedview
     id="base"
     pagecolor="#ffffff"
     bordercolor="#666666"
     borderopacity="1.0"
     inkscape:pageopacity="0.0"
     inkscape:pageshadow="2"
     inkscape:zoom="0.94"
     inkscape:cx="400"
     inkscape:cy="231.39797"
     inkscape:document-units="px"
     inkscape:current-layer="layer1"
     inkscape:document-rotation="0"
     showgrid="false"
     units="px"
     inkscape:window-width="1624"
     inkscape:window-height="1228"
     inkscape:window-x="354"
     inkscape:window-y="161"
     inkscape:window-maximized="0" />
  <metadata
     id="metadata415">
    <rdf:RDF>
      <cc:Work
         rdf:about="">
        <dc:format>image/svg+xml</dc:format>
        <dc:type
           rdf:resource="http://purl.org/dc/dcmitype/StillImage" />
        <dc:title></dc:title>
      </cc:Work>
    </rdf:RDF>
  </metadata>
  <g
     inkscape:label="Layer 1"
     inkscape:groupmode="layer"
     id="layer1">
    <g
       id="g16126"
       transform="matrix(0.02942382,0,0,-0.02942382,-140.47668,150.29362)">
      <path
         id="path180"
         style="fill-opacity:1;fill-rule:evenodd;stroke:none"
         d="m 8346.81,1157.58 c -7.61,-12.55 -18.25,-8.88 -27.85,-1.72 -68.2,50.69 -129.09,108.13 -169.94,189.15 -18.88,37.13 -45.88,72.13 -70.86,107.76 -35.6,50.92 -58.54,104.27 -88.76,155.52 -40.49,69.2 -65.49,133.36 -100.82,197.37 -18.77,33.97 -26.55,62.92 -27.04,85.91 -0.23,11.39 -0.63,22.74 -1.16,33.99 -0.7,11.42 -1.8,23.02 -2.81,34.33 -2.15,22.75 -4.3,44.71 -6.69,66.24 -5.65,42.09 7.6,67.59 16.64,96.11 3.59,10.54 9.02,19.49 15.38,27.73 6,8.5 13.28,16.02 21.46,22.98 8,7.07 17.64,13.09 26.37,19.83 8.94,6.6 18.32,13.02 27.7,19.58 19.6,12.92 63.27,8.77 82.26,24.67 5,4.24 12.17,7.19 19.34,10.24 6.91,3.17 13.96,6.36 19.14,10.72 14.66,12.57 37.17,20.41 60.62,28.31 23.42,7.88 49.4,15.03 73.17,24.38 46.27,19.43 92.56,42.22 132.6,70.48 34.61,22.94 73.6,45.3 111.73,70.38 12.5,8.02 23.46,16.75 33.68,25.91 10.23,9.17 19.57,18.82 27.74,28.96 16.87,20.16 26.8,42.77 30.27,66.98 1.77,13.46 3.01,26.98 2.1,40.68 -1.07,13.72 -3.36,27.48 -7.08,41.16 -3.77,13.68 -8.79,27.27 -15.75,40.7 -7.45,13.47 -16.52,26.75 -27.4,39.69 -12.11,14.41 -27.16,27.2 -44.98,38.35 -17.73,11.15 -39.28,20.74 -62.74,28.71 -47.21,15.99 -104.53,25.64 -170.67,30.46 -24.83,1.82 -49.83,3.42 -74.87,4.55 -13.01,0.58 -25.27,1.15 -33.8,4.82 -7.4,3.21 -20.04,5.91 -15.01,10.54 4.91,4.53 17.26,4.83 30.79,5.1 110.35,2.35 217.34,-3.89 320.47,-19.38 56.33,-8.39 103.86,-22.45 144.15,-41.34 20.05,-9.43 38.69,-20.06 54.99,-31.65 16.18,-11.59 30.71,-24.17 43.78,-37.51 82.17,-82.86 79.12,-175.59 39.69,-257.01 -31.33,-63.07 -92.27,-112.64 -147.22,-159.29 -28.24,-24.13 -81.84,-31.77 -114.9,-51.06 -102,-61.96 -210.98,-105.92 -313.94,-139.64 -18.52,-6.2 -35.14,-13.3 -49.15,-21.95 -14.14,-8.57 -25.88,-18.58 -37.44,-28.74 -11.24,-10.36 -21.01,-21.74 -29.9,-33.8 -9.08,-11.92 -18.17,-23.88 -26.45,-36.5 -5.25,-7.79 -9.6,-16.14 -13.33,-24.93 -4.06,-8.52 -7.36,-17.57 -9.96,-27.19 -2.6,-9.62 -4.49,-19.8 -5.73,-30.56 -0.63,-5.37 -1.05,-10.93 -1.41,-16.55 -0.49,-5.51 -0.82,-11.16 -1,-16.96 -0.73,-23.21 0.95,-48.8 4.62,-76.84 3.31,-27.68 8.11,-57.31 14.84,-89.68 4.44,-21.52 17.49,-46.25 32.06,-71.69 9.57,-16.75 21.49,-34.21 27.82,-50.08 39.71,-100.63 109.07,-202.11 181.8,-301.85 33.91,-46.42 58.2,-98.53 103.45,-136.37" />
      <path
         id="path182"
         style="fill-opacity:1;fill-rule:evenodd;stroke:none"
         d="m 6483.57,689.75 c -14.48,-1.289 -18.33,9 -18.71,21.039 -2.99,84.863 3.91,168.242 41.8,250.762 17.27,37.961 27.78,80.889 40.06,122.659 17.64,59.81 44.85,110.19 66.12,166.13 28.81,74.86 63.37,134.74 91.29,202.23 14.68,35.07 32.53,59.9 50.16,74.66 17.54,14.97 34.35,29.42 50.8,45.49 l 47.62,47.06 c 14.65,14.11 29.1,24.33 43.36,30.91 7.14,3.37 14.24,6.04 21.32,8.41 7.07,2.32 14.11,4.33 21.09,7.18 10.53,3.98 20.95,5.77 31.41,5.94 10.45,0.29 21,-1.66 31.51,-3.06 10.54,-1.75 21.19,-4.54 31.99,-7.81 10.79,-3.23 21.76,-7.24 32.65,-9.83 11.17,-2.98 22.63,-14.07 34.5,-25.07 11.85,-11 24.16,-22.14 36.07,-23.84 12.76,-2.16 26.99,-13.98 40.36,-17.01 4.78,-1.09 9.62,-2.69 14.52,-4.71 4.89,-1.95 9.76,-3.96 14.73,-6.5 9.93,-4.99 20.13,-11.3 30.57,-18.22 10.43,-6.93 21.11,-14.47 31.98,-21.94 10.82,-7.3 21.65,-13.9 32.65,-20.06 11.05,-6.15 22.25,-12.14 33.59,-17.94 11.33,-5.74 22.9,-11.62 34.27,-16.25 22.9,-9.73 46.3,-18.55 70.12,-26.23 19.62,-5.97 39.77,-12.89 60.71,-20.7 l 31.77,-11.77 c 10.74,-3.99 21.26,-7.13 32.03,-10.53 13.84,-4.25 27.66,-7.75 41.31,-10.27 13.61,-2.43 27.26,-4.31 40.02,-3.85 25.71,0.51 50.21,5.65 71.37,17.89 22.97,14.52 44.04,32.23 60.91,54.92 16.37,23.48 29.12,51 36,83.81 7.1,37.42 1.8,79.79 -14.91,126.23 -16.53,46.28 -45.32,97.82 -82.74,152.39 -14.08,20.57 -28.45,41.13 -43.2,61.42 -7.67,10.53 -14.88,20.48 -17.39,29.49 -2.17,7.84 -8,19.45 -1.33,18.49 6.51,-0.94 14.44,-10.4 23.09,-20.8 70.65,-84.73 132.66,-172.34 185.07,-262.8 28.58,-49.23 47.74,-95.8 57.82,-138.69 10.07,-42.83 11.81,-82.9 7.52,-120.39 -3.24,-29.07 -11.05,-53.4 -21.19,-75.45 -10.26,-21.88 -23.23,-40.95 -39.17,-55.91 -15.73,-15.3 -33.61,-27.87 -52.94,-38.07 -19.77,-9.42 -41.06,-16.38 -63.17,-21.47 -8.52,-1.93 -17.13,-3.5 -25.9,-4.54 -8.9,-0.78 -17.88,-1.18 -26.91,-1.26 -18.07,-0.17 -36.34,0.94 -54.57,2.76 -18.09,1.51 -36.8,5.31 -54.95,8.52 -17.96,3.32 -35.91,6.64 -53.82,9.96 -36.48,7.07 -76.35,45.57 -111.55,57.9 -112.16,41.37 -214.58,100.07 -305.02,159.25 -16.44,10.88 -32.21,18.34 -47.72,23.98 -15.58,6.18 -30.81,9.91 -45.92,11.86 -7.55,0.98 -15.06,1.51 -22.57,1.67 -7.53,0.54 -15.06,0.87 -22.58,0.84 -15.04,-0.03 -30.07,-1.17 -45.14,-2.75 -18.76,-1.36 -37.07,-5.63 -55.4,-14.01 -9.14,-3.99 -18.34,-9.5 -27.49,-14.73 -9.16,-5.36 -18.38,-11.6 -27.68,-18.68 -9.3,-7.08 -18.69,-14.99 -28.21,-23.72 -9.52,-8.77 -19.18,-18.33 -28.91,-27.94 -19.52,-19.61 -39.7,-42.33 -60.79,-67.86 -7.03,-8.51 -13.34,-19.18 -19.24,-31.15 -5.87,-11.79 -11.33,-24.85 -16.69,-38.35 -7.1,-17.79 -13.31,-38.14 -21.77,-52.99 -53.88,-94.06 -89.94,-211.649 -122.53,-330.759 -15.16,-55.652 -40.66,-106.628 -42.05,-165.941" />
      <path
         id="path184"
         style="fill-opacity:1;fill-rule:evenodd;stroke:none"
         d="m 4956.27,1855.64 c -10.28,10.38 -4.75,19.74 4.37,27.52 64.12,55.03 133.36,101.47 221.9,123.49 40.62,10.25 80.78,28.8 121.16,45.28 57.91,23.55 114.71,33.89 171.24,51.89 38.09,12.03 74.13,20.47 109.34,28.48 35.43,8.12 70.47,16.04 105.75,26.21 37.15,10.68 66.84,11.73 89.09,6.97 22.45,-4.48 45.53,-7.84 67.77,-11.02 l 33.13,-4.44 33.21,-3.45 c 20.97,-2.08 36.52,-7.93 50.7,-14.79 14.41,-6.68 26.56,-15.03 38.86,-23.01 9.03,-6.21 17.33,-12.84 24.09,-20.77 6.79,-7.89 12.35,-16.82 17.16,-26.49 10.11,-18.9 18.24,-39.97 26.46,-61.63 9.39,-20.87 -5.4,-63.73 6.02,-85.71 6.37,-11.27 6.1,-29.72 12.18,-42 4.4,-8.71 7.03,-19.26 9.4,-30.1 2.35,-10.85 3.82,-22.73 4.97,-35.19 2.32,-24.83 3.03,-52.47 7.54,-76.84 4.32,-24.79 9.15,-50.18 15.64,-74.45 6.7,-23.95 14.42,-47.74 23.29,-71.12 7.44,-19.28 14.69,-39.18 21.6,-60.46 7,-21.13 13.88,-43.29 22.27,-63.84 10.68,-26.74 23.28,-52.4 39.58,-72.45 16.4,-19.82 35.73,-35.65 58.41,-44.74 25.66,-8.96 52.71,-14.21 80.88,-13.48 28.56,1.8 58.11,9.23 87.97,24.05 67.74,35.65 118.25,122.34 156.86,250.04 7.29,23.84 14.41,47.91 21.06,72.09 3.45,12.56 6.73,24.41 12.2,32.02 4.77,6.61 10.2,18.42 13.59,12.65 3.31,-5.65 0.86,-17.75 -1.87,-30.99 -22.17,-108.05 -51.96,-211.21 -90,-308.67 -20.66,-53.07 -45.16,-97.26 -72.32,-131.54 -27.22,-34.63 -57.49,-61.03 -89.53,-81.1 -24.65,-15.23 -48.65,-24.58 -72.22,-30.34 -11.77,-2.81 -23.38,-4.6 -34.82,-5.44 -11.43,-0.82 -22.41,0.02 -33.34,1.31 -21.78,2.8 -42.8,8.86 -62.79,17.73 -19.66,9.65 -38.39,21.92 -56.14,36.06 -6.81,5.49 -13.45,11.14 -19.66,17.49 -6.15,6.47 -12.06,13.24 -17.75,20.25 -11.38,14.03 -21.89,29 -31.81,44.39 -5.02,7.58 -9.73,15.56 -14.21,23.82 l -13.3,24.52 c -8.59,16.09 -17.18,32.19 -25.74,48.25 -17.04,33.16 -11.97,87.99 -24.15,123.39 -37.66,113.32 -55.73,230.16 -66,337.87 -4.4,38.39 -14.37,69.79 -30.7,95.35 -7.88,13.02 -16.26,25.57 -25.95,37.01 -9.64,11.5 -20.19,22.26 -30.05,33.62 -51.57,54.26 -141.06,71.34 -272.93,74.25 -21.79,0.54 -48.7,-6.64 -76.65,-15.15 -18.44,-5.6 -38.28,-13.46 -55.3,-16.17 -54.19,-8.71 -108.93,-23.6 -165.05,-43.01 -56.03,-19.32 -112.83,-42.89 -169.54,-67.12 -52.75,-22.72 -108.8,-34.7 -155.87,-70.49" />
      <path
         id="path186"
         style="fill-opacity:1;fill-rule:evenodd;stroke:none"
         d="m 4915.43,3776.95 c 1.72,14.52 12.49,16.02 24.25,13.72 82.96,-15.91 162.42,-41.21 234.76,-96.81 33.31,-25.42 72.82,-45.3 110.85,-66.66 54.49,-30.66 97.95,-68.69 147.24,-101.74 33.12,-22.32 62.18,-45.28 90.37,-67.85 28.25,-22.61 56.4,-45.15 86.31,-66.42 31.5,-22.41 50.84,-44.99 61,-65.34 10.26,-20.26 22.25,-40.45 33.6,-59.78 l 17.18,-28.62 17.98,-28.03 c 11.37,-17.63 16.98,-33.5 19.95,-48.67 3.87,-15.4 5.02,-30.06 6.56,-44.61 5.12,-43.66 -20.42,-80.2 -42.55,-120.46 -6.11,-10.15 -19.03,-18.96 -32.08,-28.18 -13.07,-9.18 -26.14,-18.79 -31.18,-30.02 -5.77,-11.96 -19.78,-23.35 -25.39,-35.8 -4.01,-8.91 -10.05,-17.59 -17.43,-26.23 -7.35,-8.63 -16.33,-17.22 -24.91,-25.92 -17.66,-17.36 -37.94,-35.17 -55.28,-53.98 -8.99,-9.49 -16.74,-19.06 -24.72,-28.84 -7.92,-9.77 -15.67,-19.72 -23.24,-29.84 -7.53,-10.11 -15.07,-20.43 -22,-30.86 -6.6,-10.4 -12.97,-20.96 -19.09,-31.69 -10.03,-17.78 -22.46,-36.05 -34.52,-54.68 -11.71,-18.56 -24.02,-37.63 -35.63,-57.14 -15.5,-25.26 -25.85,-50.7 -31.76,-76.04 -2.91,-12.66 -4.55,-25.25 -4.66,-37.63 0.45,-12.23 2.48,-24.24 6.25,-35.87 4.2,-12.91 9.38,-25.5 15.69,-37.59 6.53,-12.02 14.93,-23.3 24.17,-34.03 9.34,-10.7 19.94,-20.71 31.92,-29.83 12.05,-9.09 26.4,-16.96 41.73,-23.92 34.48,-15.43 76.2,-19.99 126.08,-13.65 49.47,6.12 105.29,22.35 166.96,46.75 23.15,9.14 46.37,18.57 69.42,28.43 11.96,5.13 23.25,9.94 32.52,10.36 8.05,0.35 20.6,3.44 18.07,-2.88 -2.47,-6.17 -13.48,-11.81 -25.53,-17.92 -98.35,-50.04 -197.45,-90.99 -297.05,-121.84 -54.38,-16.92 -103.31,-24.91 -147.82,-25.38 -44.9,-0.67 -83.75,6.82 -118.96,19.53 -13.6,4.91 -26.2,10.51 -37.84,16.73 -5.8,3.11 -11.45,6.34 -16.71,9.78 -5.13,3.48 -10.03,7.1 -14.71,10.85 -18.7,15.02 -33.79,32.14 -45.75,50.73 -11.97,18.58 -19.17,39.15 -24.63,60.33 -2.63,10.63 -4.6,21.48 -5.98,32.49 -1.3,11.04 -1.32,22.41 -1.21,33.78 0.31,17.55 2.49,35.19 5.96,52.75 3.09,17.48 9.37,35.26 15.32,52.62 6.19,17.41 13.07,34.62 20.04,51.56 7.12,16.96 15.35,33.81 22.5,50.31 7.42,16.9 22.46,33.01 38.07,48.71 15.98,15.76 33.09,31.16 43.39,47.06 65.23,99.96 143.8,187.32 222.23,262.57 13.4,13.74 25.57,27.33 34.52,41.21 9.23,13.83 15.46,27.97 20.9,42.21 5.77,14.17 9.77,28.61 12.68,43.29 1.53,7.33 2.46,14.78 3.8,22.16 1.44,7.35 2.69,14.74 3.84,22.17 1.43,9.25 1.9,18.6 1.45,28.11 -0.53,9.53 -1.88,19.19 -3.39,28.87 -3.43,19.45 -10.39,39.72 -20.53,61.11 -9.74,21.27 -21.7,43.34 -37.06,66.94 -7.61,11.78 -15.97,23.9 -24.94,36.36 -8.56,12.31 -17.8,24.99 -27.68,38.04 -13.16,17.39 -35.54,33.98 -59.61,50.55 -15.86,10.95 -34.37,21.59 -47.1,33.22 -40.59,37.01 -86.14,70.51 -136.35,102.4 -50.01,31.82 -103.81,61.61 -158.07,90.92 -50.62,27.15 -94.89,63.57 -152.2,78.13" />
      <path
         id="path188"
         style="fill-opacity:1;fill-rule:evenodd;stroke:none"
         d="m 6391.9,5006.41 c 12.48,7.48 20.4,-0.1 25.95,-10.77 39.35,-75.13 69.16,-153.23 70.69,-244.13 0.84,-41.74 9.92,-85.01 16.92,-127.99 9.98,-61.7 7.2,-118.86 12.1,-178.05 6.41,-80.04 1.19,-149.13 5.25,-222.18 1.04,-19.19 0.11,-36 -2.26,-50.55 -2.27,-14.92 -5.96,-27.63 -10.68,-38.22 -9.32,-21 -17.98,-41.93 -26.02,-62.87 -7.43,-21.06 -14.85,-42.12 -22.27,-63.16 -7,-19.15 -15.61,-34.18 -25.42,-46.44 -4.91,-6.12 -10.09,-11.59 -15.38,-16.77 -5.32,-5.11 -10.69,-10.04 -15.7,-15.59 -30.74,-31.73 -75.65,-33.82 -120.65,-42.04 -22.61,-4.17 -61.54,20.44 -84.84,13.23 -12.54,-3.51 -30.61,1.04 -44.07,-1.95 -18.73,-4.98 -41.67,-3.31 -66.72,0.26 l -19.07,2.91 -19.05,2.54 c -12.79,1.68 -25.7,3.2 -38.34,4 -12.72,0.8 -25.55,1.44 -38.36,1.78 -12.49,-0.01 -25.02,-0.25 -37.56,-0.74 -24.91,-1.18 -50.72,-2.55 -74.63,-6.89 -20.13,-3.3 -41.76,-5.39 -64.15,-7.33 -22.22,-2.08 -44.37,-4.77 -66.89,-7.86 -14.43,-2.08 -28.65,-4.7 -42.04,-8.35 -13.1,-3.89 -25.61,-8.6 -37.28,-14.25 -11.67,-5.66 -22.49,-12.27 -32.2,-19.93 -9.74,-7.65 -17.49,-17 -24.31,-27.15 -7.45,-11.36 -14.03,-23.28 -19.52,-35.78 -5.64,-12.39 -8.98,-26.17 -11.67,-40.06 -2.53,-13.99 -3.74,-28.53 -3.39,-43.6 0.18,-14.98 3.13,-31.21 7.19,-47.53 17.88,-73.09 93.47,-143.06 208.32,-208.79 21.57,-12.43 43.4,-24.74 65.46,-36.64 11.46,-6.17 22.26,-12.02 28.36,-19.01 5.29,-6.09 15.51,-14 9,-15.95 -6.37,-1.92 -17.62,3.19 -29.92,8.82 -100.4,45.84 -194.09,97.91 -280.26,156.68 -94.04,63.72 -147.49,134.44 -170.66,205.17 -19.24,55.25 -16.78,102.89 -2.8,144.83 7.38,20.72 18.65,39.36 31.83,56.8 6.68,8.66 13.79,17.06 21.67,24.9 8.1,7.66 16.7,14.97 25.69,21.94 13.85,10.73 28.93,20.07 44.76,28.34 16.18,7.97 33.44,14.6 50.79,20.72 17.49,6 34.82,11.71 52.79,16.49 17.77,4.63 35.54,9.26 53.28,13.89 35.17,10.18 88.27,-7.69 125.63,-3.8 118.84,11.62 236.58,3.65 343.77,-10.11 19.56,-2.67 37.22,-2.85 53.51,-0.96 16.4,1.69 32,4.47 46.39,9.33 28.53,10.18 55.35,23.25 80.9,39.36 32.72,18.03 57.2,49.54 78.65,90.54 20.81,42.54 38.57,94.2 54.37,158.89 5.29,21.44 4.48,48.73 2.43,77.87 -1.3,19.14 -4.51,40.19 -3.31,57.27 7.88,108.23 -10.54,230.27 -32.53,351.3 -10.31,56.44 -9.36,113.52 -33.75,167.58" />
      <path
         id="path190"
         style="fill-opacity:1;fill-rule:evenodd;stroke:none"
         d="m 8273.41,4618.07 c 13.64,-5.03 12.65,-15.91 7.77,-26.9 -34.19,-77.53 -76.63,-149.49 -146.75,-207.45 -32.11,-26.73 -60.28,-60.81 -89.52,-93.1 -41.98,-46.24 -88.56,-79.93 -131.65,-120.48 -58.42,-54.68 -115.91,-93.9 -170.53,-142.57 -14.38,-12.78 -28.14,-22.54 -41.02,-29.75 -12.88,-7.21 -25.3,-12.47 -36.5,-15.32 -22.26,-5.75 -44.18,-12.17 -65.5,-18.73 -21.14,-7.3 -42.28,-14.61 -63.39,-21.91 -9.84,-3.49 -18.72,-5.29 -27.45,-6.85 -8.72,-1.55 -16.91,-2.14 -24.76,-2.12 -7.86,0.03 -15.37,0.67 -22.73,1.58 -7.35,0.91 -14.49,2.19 -21.95,2.64 -11.12,0.95 -21.2,3.84 -30.6,8.2 -9.39,4.41 -18.1,10.32 -26.87,16.21 -8.67,6.16 -16.99,13.32 -25.23,20.96 l -12.35,11.7 -12.74,11.07 c -17.36,14.83 -22.18,60.98 -42.31,74.54 -10.53,7.56 -18.2,24.46 -28.91,33.07 -15.37,12.02 -28.46,30.45 -41.23,52.29 -12.7,22.08 -25.65,45.1 -40.18,65.68 -29.06,42.46 -62.07,79.66 -98.38,114.29 -15.18,13.45 -30.33,28.84 -45.85,44.91 l -23.56,24.46 c -7.98,7.87 -16.1,15.56 -24.34,23.22 -10.65,9.84 -21.59,19.01 -32.81,27.21 -11.21,8.07 -22.7,15.81 -34.4,20.89 -23.4,10.76 -47.69,16.49 -72.1,14.97 -27.02,-2.85 -53.66,-10.25 -78.77,-22.95 -25.02,-13.57 -48.39,-33.59 -68.91,-59.89 -11.47,-14.38 -20.45,-32.96 -27.36,-52.92 -6.89,-20.18 -11.57,-42.64 -14.15,-67.26 -5.18,-49.31 -1.96,-106.89 8.05,-172.68 3.73,-24.66 7.72,-49.45 12.17,-74.14 2.33,-12.82 4.49,-24.92 2.86,-34.19 -1.44,-8.04 -1.22,-21.06 -6.77,-17.37 -5.42,3.62 -8.44,15.58 -11.7,28.7 -26.71,107 -44.46,212.95 -52.31,317.39 -2.16,28.46 -2.52,55.34 -1.06,80.21 1.47,24.75 4.69,47.83 9.47,69.38 9.57,43.02 25.39,80.32 45.62,112.03 15.71,23.89 33.22,43.23 51.97,58.58 9.38,7.61 19.05,14.52 29.01,19.97 9.97,5.27 20.19,9.62 30.6,13.13 20.81,6.89 42.33,10.89 64.18,11.21 21.86,-0.14 44.01,-3.06 66.1,-8.06 8.51,-1.97 16.93,-4.23 25.26,-7.18 8.34,-3.16 16.59,-6.7 24.75,-10.56 16.32,-7.7 32.28,-16.64 47.89,-26.21 15.62,-9.26 30.84,-20.43 45.79,-31.42 14.73,-10.82 29.46,-21.64 44.16,-32.43 14.9,-10.32 27.2,-29.57 39.05,-48.52 11.85,-19.11 23.18,-38.68 36.44,-52.01 83.23,-85.77 150.31,-182.78 206.17,-275.15 10.08,-16.93 20.94,-30.81 32.54,-42.34 11.43,-11.99 23.39,-22.27 36.12,-30.52 6.35,-4.17 12.86,-7.93 19.52,-11.34 6.67,-3.39 13.16,-7.21 19.95,-10.36 13.48,-6.49 27.45,-11.97 41.64,-17.07 69.33,-27.52 157.7,-3.5 278.17,51.19 19.86,8.89 40.89,26.8 62.37,46.5 14.17,12.96 28.64,28.59 42.75,38.32 44.76,30.79 88.22,68.64 130.51,110.52 42.34,41.91 83.12,87.41 123.79,133.83 37.7,43.26 82.92,78.18 109.97,130.9" />
      <path
         id="path192"
         style="fill-opacity:1;fill-rule:evenodd;stroke:none"
         d="m 9142.88,2905.38 c 4.77,-13.75 -4.28,-19.75 -15.87,-22.78 -81.64,-21.58 -164.16,-33.31 -253.5,-14.71 -41.05,8.4 -85.28,9.14 -128.81,11.86 -62.4,3.95 -118.08,19.33 -176.84,27.72 -79.09,11.57 -144.24,32.17 -217.35,44.48 -38.14,6.57 -65.41,18.58 -83.46,32.58 l -13.44,10.3 -14.22,9.96 -28.42,19.23 c -19.12,12.49 -36.85,24.63 -56.05,36 -17.98,10.98 -30.07,22.86 -39.38,35.27 -4.45,6.24 -9.07,12.42 -13.19,18.67 -4.14,6.25 -7.96,12.53 -11.87,18.74 -6.06,9.31 -9.15,19.22 -12.16,29.14 -2.85,9.95 -4.14,20.3 -4.43,31 0.04,21.58 1.32,43.78 2.94,66.62 0.39,5.83 2.73,12.17 6.03,18.83 3.25,6.64 6.97,13.43 10.92,20.39 7.78,13.87 15.37,28.13 15.02,40.37 -0.23,6.53 2.07,14.02 3.99,21.45 1.83,7.39 3.73,14.89 3.55,21.65 -0.25,9.71 1.45,20.1 4.36,31.03 2.92,10.93 7.21,22.48 11.21,34.02 8.43,23.25 19.02,48.06 26.51,72.5 13.57,48.35 24.46,98.72 27.34,147.75 3.67,41.44 10.22,85.75 14.59,131.38 2.35,29.04 0.84,56.68 -4.62,82.27 -1.41,6.35 -3.01,12.64 -5.09,18.59 -2.19,5.85 -4.69,11.52 -7.5,16.97 -5.64,10.91 -12.55,20.96 -20.89,29.9 -37.33,39.37 -89.13,65.41 -156.78,63.75 -18.66,-0.28 -37.97,-3.97 -58.23,-11.4 -20.11,-7.26 -40.64,-17.66 -61.53,-31.04 -41.79,-26.73 -85,-65.39 -129.99,-114.02 -16.9,-18.24 -33.74,-36.77 -50.24,-55.62 -8.56,-9.79 -16.62,-18.97 -24.93,-23.5 -7.2,-3.91 -17.27,-12.2 -17.87,-5.57 -0.59,6.48 6.88,16.3 15.09,27.03 66.96,87.61 138.76,167.58 215.54,238.9 41.95,39.09 82.23,67.01 122.05,86.59 19.86,9.75 39.51,17.34 58.93,23.03 9.7,2.85 19.35,5.22 28.93,7.16 9.46,1.81 18.74,3.05 28,3.96 28.58,2.76 54.72,1.27 78.53,-3.66 23.78,-4.98 44.16,-14.45 62.92,-26.05 9.31,-5.86 18.08,-12.4 26.33,-19.51 8.1,-7.24 15.33,-15.39 22.25,-23.85 13.67,-17.08 25.78,-35.77 35.45,-56.34 7.21,-16.03 12.78,-32.96 17.16,-50.37 4.36,-17.42 7.77,-35.15 9.42,-53.78 1.9,-18.44 3.08,-37.01 4.07,-55.37 0.46,-9.21 1.04,-18.25 1.32,-27.42 l 0.64,-27.46 c 1.13,-37.21 -26.08,-83.8 -31.62,-121.72 -15.07,-118.41 -48.26,-231.06 -86.23,-332.59 -6.46,-18.26 -11.49,-35.74 -13.43,-52.05 -2.33,-16.44 -1.42,-31.72 -0.8,-47.08 1.03,-15.23 3.78,-29.94 7.61,-44.39 l 3.02,-10.81 2.75,-10.89 c 1.94,-7.23 4.07,-14.43 6.3,-21.62 5.59,-17.86 15.07,-34.42 26.27,-50.56 11.56,-16.07 27.01,-31.28 45.14,-46.24 34.71,-30.13 84.42,-58.66 141.91,-88.76 19.44,-9.98 46.83,-15.24 75.72,-19.75 19.05,-2.99 40.36,-4.56 56.88,-9.52 52.45,-15.77 108.05,-26.18 167.14,-33.11 58.87,-6.96 120.27,-10.43 181.88,-13.26 57.39,-2.48 113.09,-16 171.03,-4.29" />
    </g>
  </g>
</g><g id="163718245898353843" featurekey="nameFeature-0" fill="#000"><text x="256.25" y="50%" dominant-baseline="middle" text-anchor="left" class="mytextnew163718245898353843" style="font-size:48px;fill:#000;">Baris Kayhan</text><text x="166.25" y="179.5" dominant-baseline="top" text-anchor="middle" class="mytextnew2163718245898353843" style="font-size:72px;fill:#000;">B</text></g></svg>